<?xml version="1.0" encoding="UTF-8"?>
<svg width="450px" height="450px" viewBox="0 0 450 450" version="1.1" xmlns="http://www.w3.org/2000/svg" xmlns:xlink="http://www.w3.org/1999/xlink">
    <!-- Generator: Sketch 55.2 (78181) - https://sketchapp.com -->
    <title>9</title>
    <desc>Created with Sketch.</desc>
    <g id="Page-1" stroke="none" stroke-width="1" fill="none" fill-rule="evenodd">
        <g id="Artboard" transform="translate(-106.000000, -1422.000000)">
            <g id="Group-22" transform="translate(106.000000, 413.000000)">
                <g id="9" transform="translate(225.000000, 1234.000000) rotate(-270.000000) translate(-225.000000, -1234.000000) translate(0.000000, 1009.000000)">
                    <polygon id="Shape" fill="#3C61AF" points="0 -3.90312782e-16 450 0 450 450 0 450"></polygon>
                    <polygon id="Shape" fill="#FF6242" transform="translate(225.000000, 225.000000) scale(-1, -1) translate(-225.000000, -225.000000) " points="0 0 450 450 0 450"></polygon>
                    <path d="M229.5,56.5 C322.836123,56.5 398.5,131.94002 398.5,225 C398.5,318.05998 322.836123,393.5 229.5,393.5 C136.163877,393.5 60.5,318.05998 60.5,225 C60.5,131.94002 136.163877,56.5 229.5,56.5 Z" id="Shape" fill="#FFFFFF"></path>
                </g>
            </g>
        </g>
    </g>
</svg>